<?xml version="1.0" standalone="no"?><!DOCTYPE svg PUBLIC "-//W3C//DTD SVG 1.1//EN" "http://www.w3.org/Graphics/SVG/1.1/DTD/svg11.dtd"><svg t="1715701294303" class="icon" viewBox="0 0 1024 1024" version="1.1" xmlns="http://www.w3.org/2000/svg" p-id="7219" xmlns:xlink="http://www.w3.org/1999/xlink" width="200" height="200"><path d="M901.666133 675.771733a1802.6496 1802.6496 0 0 1-251.2896 12.9024 428.2368 428.2368 0 0 1 7.5776 97.211734c0 106.2912-77.482667 199.816533-146.0224 199.816533a89.361067 89.361067 0 0 1-88.746666-88.132267 236.544 236.544 0 0 0-118.442667-214.766933 1577.233067 1577.233067 0 0 0-31.1296-15.496533l1.501867-1.297067a93.934933 93.934933 0 0 1-59.1872 23.688533h-88.746667a88.746667 88.746667 0 0 1-88.746667-88.746666v-473.770667a88.746667 88.746667 0 0 1 88.746667-88.746667h88.746667a87.722667 87.722667 0 0 1 79.0528 51.131734l1.297066-0.4096 6.826667-1.911467a3.6864 3.6864 0 0 0 1.297067 0c17.066667-4.3008 49.902933-12.014933 120.0128-28.194133a880.64 880.64 0 0 1 176.810666-20.48h162.2016a109.568 109.568 0 0 1 106.154667 56.866133 1012.9408 1012.9408 0 0 1 116.053333 478.549333 109.704533 109.704533 0 0 1-83.968 101.717334zM245.5552 127.112533a29.627733 29.627733 0 0 0-29.627733-29.627733h-88.746667a29.627733 29.627733 0 0 0-29.627733 29.627733v473.770667a29.627733 29.627733 0 0 0 29.627733 29.627733h88.746667a29.559467 29.559467 0 0 0 29.627733-29.627733v-473.770667z m680.209067 428.509867c-12.356267-297.437867-108.544-432.059733-108.544-432.059733a53.384533 53.384533 0 0 0-53.8624-25.8048h-161.792a822.545067 822.545067 0 0 0-163.84 18.978133c-122.88 28.2624-129.706667 30.446933-137.079467 32.631467l4.096 434.722133c0 44.987733 0.955733 33.5872 0 33.041067a290.884267 290.884267 0 0 1 177.493333 279.893333 29.696 29.696 0 0 0 29.696 29.354667c31.3344 0 86.6304-62.805333 86.6304-140.629334a354.440533 354.440533 0 0 0-27.306666-155.374933c296.004267 0 294.024533-4.3008 320.1024-11.127467a45.2608 45.2608 0 0 0 35.089066-45.329066c0-10.171733 0-8.738133-0.546133-18.568534z" fill="#333333" p-id="7220"></path></svg>